<?xml version="1.0" encoding="iso-8859-1"?>
<!-- Generator: Adobe Illustrator 19.0.0, SVG Export Plug-In . SVG Version: 6.00 Build 0)  -->
<svg version="1.1" id="Layer_1" xmlns="http://www.w3.org/2000/svg" xmlns:xlink="http://www.w3.org/1999/xlink" x="0px" y="0px"
	 viewBox="0 0 490.078 490.078" style="enable-background:new 0 0 490.078 490.078;" xml:space="preserve">
<g id="XMLID_930_">
	<g id="XMLID_951_">
		<polygon style="fill:#F9B233;" points="293.357,323.727 49.422,323.727 10.078,166.35 269.75,166.35 		"/>
	</g>
	<path style="fill:#1D1D1B;" d="M55.566,315.859L21.758,180.628l154.951,73.786l88.215-80.195h12.695v-15.737H0l43.279,173.114
		h257.946v-15.737H55.566z M173.939,235.664L44.905,174.219h196.624L173.939,235.664z"/>
	<g id="XMLID_945_">
		<rect x="293.356" y="158.482" style="fill:#1D1D1B;" width="110.164" height="15.737"/>
	</g>
	<g id="XMLID_939_">
		<rect x="419.259" y="158.482" style="fill:#1D1D1B;" width="23.606" height="15.737"/>
	</g>
	<g id="XMLID_938_">
		<rect x="269.75" y="189.957" style="fill:#1D1D1B;" width="94.427" height="15.737"/>
	</g>
	<g id="XMLID_937_">
		<rect x="293.356" y="221.433" style="fill:#1D1D1B;" width="125.902" height="15.737"/>
	</g>
	<g id="XMLID_936_">
		<rect x="285.488" y="252.908" style="fill:#1D1D1B;" width="47.213" height="15.737"/>
	</g>
	<g id="XMLID_935_">
		<rect x="348.438" y="252.908" style="fill:#1D1D1B;" width="110.164" height="15.737"/>
	</g>
	<g id="XMLID_933_">
		<rect x="316.963" y="315.859" style="fill:#1D1D1B;" width="31.476" height="15.737"/>
	</g>
	<g id="XMLID_932_">
		<rect x="364.177" y="315.859" style="fill:#1D1D1B;" width="125.901" height="15.737"/>
	</g>
	<g id="XMLID_931_">
		<rect x="269.75" y="284.383" style="fill:#1D1D1B;" width="125.902" height="15.737"/>
	</g>
</g>
<g>
</g>
<g>
</g>
<g>
</g>
<g>
</g>
<g>
</g>
<g>
</g>
<g>
</g>
<g>
</g>
<g>
</g>
<g>
</g>
<g>
</g>
<g>
</g>
<g>
</g>
<g>
</g>
<g>
</g>
</svg>
